<svg xmlns="http://www.w3.org/2000/svg" viewBox="0 0 64 64" fill="none"><rect width="64" height="64" rx="16" fill="#0F172A"/><path d="M14 30.5L26.5 18l5.5 5.5L25.5 30l6 6-5.5 5.5L14 30.5Z" fill="#3B82F6"/><path d="M50 22.5L35.5 8l-5.5 5.5 8.5 8.5-8.5 8.5 5.5 5.5L50 22.5Z" fill="#2DD4BF"/><path d="M32 18l-4 4v20l4 4 4-4V22l-4-4Z" fill="#38BDF8"/><path d="M50 44H28l-6-6 6-6" stroke="#22D3EE" stroke-width="5.5" stroke-linecap="round" stroke-linejoin="round"/><path d="M42 18h8v8" stroke="#2DD4BF" stroke-width="5.5" stroke-linecap="round" stroke-linejoin="round"/><path d="M50 31.5c0-5.2-2-9.8-5.3-13.1" stroke="#2DD4BF" stroke-width="5.5" stroke-linecap="round"/></svg>
